<svg width="66" height="18" viewBox="0 0 66 18" fill="none" xmlns="http://www.w3.org/2000/svg">
<path d="M32.0113 2.85131V3.01131C32.2226 2.73589 32.4868 2.5054 32.7883 2.33332C33.0686 2.18614 33.3817 2.1125 33.6983 2.11932C34.0948 2.11617 34.4842 2.22539 34.8213 2.43432C35.1762 2.65623 35.4591 2.97656 35.6353 3.35632C35.8445 3.8055 35.9472 4.29694 35.9353 4.79232C35.9387 5.17339 35.881 5.55255 35.7643 5.91532C35.6637 6.22939 35.5023 6.52058 35.2893 6.77232C35.0945 6.9995 34.853 7.18199 34.5813 7.30732C34.304 7.43171 34.0032 7.49513 33.6993 7.49331C33.3664 7.50508 33.0366 7.42592 32.7453 7.26432C32.4604 7.09023 32.2113 6.86354 32.0113 6.59632V8.58431C32.0113 9.16631 31.7983 9.45832 31.3753 9.45832C31.2801 9.47207 31.1829 9.45805 31.0955 9.41796C31.008 9.37788 30.934 9.31343 30.8823 9.23232C30.7875 9.02723 30.7449 8.80186 30.7583 8.57632V2.85932C30.744 2.65733 30.8026 2.45691 30.9233 2.29432C30.9801 2.23149 31.0503 2.18217 31.1287 2.14999C31.2071 2.1178 31.2917 2.10357 31.3763 2.10831C31.4619 2.10517 31.5472 2.12082 31.6262 2.15417C31.7051 2.18751 31.7758 2.23774 31.8333 2.30132C31.9613 2.45484 32.0251 2.65188 32.0113 2.85131V2.85131ZM34.6043 4.77732C34.6129 4.46982 34.5595 4.16371 34.4473 3.87731C34.3557 3.6472 34.2016 3.44732 34.0023 3.30032C33.8198 3.16945 33.6008 3.09947 33.3763 3.10032C33.1996 3.09792 33.0246 3.13543 32.8645 3.21006C32.7043 3.28469 32.5631 3.3945 32.4513 3.53132C32.1748 3.89524 32.0404 4.34746 32.0733 4.80332C32.0474 5.24448 32.18 5.68035 32.4473 6.03231C32.5588 6.17096 32.7004 6.28251 32.8613 6.35854C33.0222 6.43458 33.1983 6.47315 33.3763 6.47132C33.5942 6.47184 33.8069 6.40399 33.9843 6.27732C34.1874 6.13384 34.3444 5.93441 34.4363 5.70332C34.5563 5.40977 34.6135 5.09433 34.6043 4.77732V4.77732Z" fill="white"/>
<path d="M41.7026 4.79968C41.7067 5.17123 41.6451 5.54058 41.5206 5.89068C41.4038 6.21162 41.2216 6.5048 40.9856 6.75167C40.7488 6.99097 40.4648 7.17829 40.1516 7.30168C39.8029 7.43105 39.4334 7.49512 39.0616 7.49067C38.6918 7.4964 38.3243 7.43052 37.9796 7.29667C37.664 7.17351 37.3787 6.98396 37.1428 6.74086C36.907 6.49775 36.7261 6.20678 36.6126 5.88768C36.3713 5.17726 36.3713 4.40709 36.6126 3.69668C36.7266 3.37816 36.9069 3.08744 37.1416 2.84368C37.3769 2.60344 37.6624 2.41804 37.9776 2.30068C38.3227 2.1683 38.6899 2.10279 39.0596 2.10768C39.4319 2.1038 39.8017 2.16995 40.1496 2.30268C40.4662 2.42412 40.7525 2.61319 40.9886 2.85668C41.2241 3.0992 41.4048 3.38939 41.5186 3.70768C41.644 4.05794 41.7063 4.42766 41.7026 4.79968V4.79968ZM40.3746 4.79968C40.4017 4.35119 40.277 3.90664 40.0206 3.53768C39.9076 3.39242 39.762 3.27586 39.5956 3.19749C39.4291 3.11912 39.2465 3.08116 39.0626 3.08668C38.8191 3.08138 38.5799 3.15121 38.3776 3.28668C38.1703 3.43472 38.0119 3.64118 37.9226 3.87968C37.712 4.46944 37.712 5.11392 37.9226 5.70368C38.0123 5.94223 38.1702 6.14914 38.3766 6.29869C38.6335 6.46852 38.9444 6.53706 39.2489 6.49107C39.5535 6.44508 39.8302 6.28782 40.0256 6.04968C40.279 5.68405 40.402 5.24372 40.3746 4.79968V4.79968Z" fill="white"/>
<path d="M43.1673 1.49537C42.9936 1.49815 42.825 1.43693 42.6935 1.32337C42.6278 1.26245 42.5764 1.18772 42.5431 1.10454C42.5097 1.02137 42.4952 0.931823 42.5006 0.842365C42.4982 0.755133 42.5148 0.668422 42.5494 0.588284C42.5839 0.508145 42.6355 0.436512 42.7005 0.378369C42.8257 0.259325 42.9926 0.194312 43.1653 0.197369C43.3319 0.196775 43.4934 0.254424 43.622 0.360363C43.69 0.420036 43.7434 0.494531 43.778 0.578098C43.8127 0.661665 43.8277 0.752075 43.8219 0.842365C43.8266 0.931448 43.8118 1.02048 43.7785 1.10322C43.7451 1.18596 43.6941 1.26041 43.629 1.32136C43.5013 1.43354 43.3372 1.4954 43.1673 1.49537V1.49537ZM43.8239 2.86036V6.68936C43.8388 6.90603 43.7713 7.12031 43.635 7.28936C43.5736 7.35487 43.499 7.40657 43.4161 7.44105C43.3333 7.47553 43.244 7.49199 43.1543 7.48936C43.0651 7.49197 42.9765 7.47465 42.8949 7.43867C42.8133 7.40269 42.7408 7.34895 42.6825 7.28137C42.5497 7.11081 42.4849 6.897 42.5006 6.68136V2.89437C42.4839 2.68016 42.5489 2.46757 42.6825 2.29937C42.7419 2.23378 42.8149 2.18192 42.8964 2.14738C42.9779 2.11284 43.0659 2.09645 43.1543 2.09936C43.244 2.09705 43.3331 2.11367 43.4159 2.14813C43.4988 2.18259 43.5734 2.23412 43.635 2.29937C43.769 2.45437 43.8369 2.65582 43.8239 2.86036V2.86036Z" fill="white"/>
<path d="M49.2081 5.75846C49.2239 6.09403 49.1295 6.42557 48.9391 6.7024C48.7488 6.97923 48.4731 7.18612 48.1541 7.29147C47.7469 7.43532 47.3167 7.50311 46.8851 7.49146C46.467 7.50284 46.0511 7.42831 45.6631 7.27247C45.3688 7.16066 45.1093 6.97297 44.9111 6.72846C44.7597 6.54178 44.6737 6.31067 44.6661 6.07046C44.6651 6.00077 44.6785 5.93163 44.7053 5.8673C44.7321 5.80298 44.7719 5.74484 44.8221 5.69646C44.8737 5.64545 44.9352 5.60541 45.0027 5.57877C45.0702 5.55214 45.1425 5.53945 45.2151 5.54147C45.3315 5.53299 45.4468 5.56868 45.5381 5.64146C45.6239 5.72547 45.6952 5.82313 45.7491 5.93046C45.8651 6.1599 46.0473 6.34926 46.2721 6.47405C46.4969 6.59884 46.754 6.65332 47.0101 6.63046C47.2419 6.63933 47.471 6.57762 47.6671 6.45347C47.7385 6.4113 47.7987 6.35241 47.8424 6.28187C47.8861 6.21133 47.9121 6.13124 47.9181 6.04847C47.9252 5.94729 47.9042 5.8461 47.8575 5.7561C47.8107 5.66609 47.74 5.59077 47.6531 5.53846C47.3786 5.3965 47.0858 5.2932 46.7831 5.23147C46.4032 5.14415 46.0313 5.0254 45.6711 4.87646C45.4065 4.76879 45.1712 4.60023 44.9841 4.38447C44.8103 4.17314 44.7189 3.90597 44.7271 3.63247C44.7273 3.36408 44.8093 3.10211 44.9621 2.88146C45.137 2.62997 45.3797 2.43334 45.6621 2.31446C46.0156 2.16586 46.3967 2.09428 46.7801 2.10447C47.0915 2.10013 47.4022 2.13677 47.7041 2.21346C47.9459 2.27069 48.1768 2.36659 48.3881 2.49746C48.5543 2.59949 48.6968 2.73588 48.8061 2.89747C48.8959 3.02149 48.9467 3.16944 48.9521 3.32246C48.9533 3.3919 48.9401 3.46085 48.9132 3.52489C48.8864 3.58894 48.8465 3.64669 48.7961 3.69447C48.6765 3.79895 48.5205 3.85181 48.3621 3.84147C48.2359 3.84439 48.1128 3.80299 48.0141 3.72446C47.8937 3.6199 47.7848 3.50292 47.6891 3.37547C47.5928 3.25008 47.4728 3.14477 47.3361 3.06547C47.1641 2.97975 46.973 2.93947 46.7811 2.94846C46.57 2.93969 46.3611 2.99401 46.1811 3.10447C46.1116 3.14088 46.0531 3.19504 46.0115 3.26145C45.9699 3.32786 45.9466 3.40412 45.9441 3.48246C45.9431 3.54942 45.9585 3.61561 45.989 3.67522C46.0195 3.73484 46.0642 3.78608 46.1191 3.82446C46.2611 3.92718 46.4212 4.00217 46.5911 4.04546C46.7911 4.10446 47.0561 4.17847 47.4031 4.25947C47.7517 4.3371 48.0895 4.45698 48.4091 4.61646C48.6424 4.73334 48.8459 4.90195 49.0041 5.10946C49.1381 5.2992 49.2095 5.52614 49.2081 5.75846Z" fill="white"/>
<path d="M54.3439 5.7574C54.3588 6.09305 54.2637 6.42439 54.0731 6.70108C53.8825 6.97777 53.6068 7.18469 53.2879 7.29041C52.8801 7.43453 52.4492 7.50232 52.0169 7.4904C51.5992 7.5019 51.1836 7.42736 50.7959 7.27141C50.5009 7.15939 50.2405 6.97178 50.0409 6.7274C49.8913 6.53994 49.8064 6.3091 49.7989 6.0694C49.7978 5.99978 49.811 5.93069 49.8377 5.86636C49.8643 5.80204 49.9039 5.74386 49.9539 5.6954C50.0058 5.64423 50.0676 5.60412 50.1355 5.57748C50.2034 5.55084 50.276 5.53823 50.3489 5.54041C50.4644 5.53169 50.5789 5.56746 50.6689 5.6404C50.7547 5.72485 50.8266 5.8224 50.8819 5.9294C50.9968 6.14361 51.1649 6.32473 51.3699 6.4554C51.6062 6.58478 51.8738 6.64606 52.1429 6.6324C52.3735 6.64161 52.6015 6.57982 52.7959 6.4554C52.8687 6.41447 52.9301 6.35598 52.9744 6.28523C53.0188 6.21449 53.0447 6.13375 53.0499 6.0504C53.057 5.94934 53.0362 5.84826 52.9896 5.75829C52.943 5.66831 52.8725 5.59293 52.7859 5.54041C52.5111 5.39841 52.218 5.29509 51.9149 5.2334C51.5354 5.14597 51.1638 5.02724 50.8039 4.8784C50.5389 4.7701 50.3026 4.60166 50.1139 4.3864C49.9408 4.17471 49.8499 3.90771 49.8579 3.6344C49.8593 3.36558 49.9427 3.10359 50.0969 2.88341C50.2718 2.63195 50.5146 2.43533 50.7969 2.31641C51.1508 2.16793 51.5322 2.09634 51.9159 2.1064C52.228 2.10234 52.5393 2.13899 52.8419 2.21541C53.0834 2.27339 53.3143 2.36924 53.5259 2.4994C53.6912 2.60229 53.8332 2.73852 53.9429 2.8994C54.0306 3.02421 54.08 3.17193 54.0849 3.3244C54.0875 3.39374 54.0752 3.46283 54.0488 3.52701C54.0224 3.59118 53.9825 3.64894 53.9319 3.6964C53.8725 3.74838 53.8034 3.78813 53.7285 3.81335C53.6537 3.83858 53.5747 3.84879 53.4959 3.8434C53.3705 3.84586 53.2481 3.80447 53.1499 3.72639C53.0292 3.62189 52.9199 3.50491 52.8239 3.3774C52.7268 3.25199 52.6062 3.1467 52.4689 3.0674C52.2977 2.98137 52.1072 2.94108 51.9159 2.95041C51.7068 2.94217 51.5 2.99648 51.3219 3.1064C51.2519 3.14233 51.1927 3.1963 51.1505 3.26276C51.1083 3.32921 51.0846 3.40574 51.0819 3.48441C51.0811 3.55122 51.0966 3.61722 51.1269 3.67677C51.1572 3.73633 51.2014 3.78767 51.2559 3.8264C51.3985 3.92805 51.5585 4.00294 51.7279 4.04741C51.9229 4.10641 52.1959 4.1804 52.5429 4.2614C52.8911 4.33938 53.2285 4.45926 53.5479 4.61841C53.7808 4.7337 53.983 4.90267 54.1379 5.1114C54.2733 5.29946 54.3454 5.52567 54.3439 5.7574V5.7574Z" fill="white"/>
<path d="M60.1697 4.79956C60.174 5.17113 60.1124 5.54051 59.9877 5.89056C59.8756 6.21113 59.6951 6.50347 59.4587 6.7473C59.2223 6.99112 58.9357 7.1806 58.6187 7.30257C58.2698 7.43224 57.8999 7.49631 57.5277 7.49156C57.1579 7.49686 56.7906 7.431 56.4457 7.29756C56.1337 7.17268 55.8508 6.98476 55.6147 6.74556C55.3788 6.49995 55.1963 6.20816 55.0787 5.88856C54.9548 5.53939 54.8939 5.17102 54.8987 4.80057C54.8943 4.42598 54.9563 4.05356 55.0817 3.70056C55.1973 3.38278 55.3774 3.09236 55.6107 2.84756C55.8465 2.60876 56.1309 2.42356 56.4447 2.30456C56.7899 2.17244 57.1571 2.10694 57.5267 2.11156C57.8994 2.10721 58.2696 2.17338 58.6177 2.30656C58.9339 2.42847 59.2201 2.61706 59.4569 2.85951C59.6936 3.10196 59.8753 3.39257 59.9897 3.71156C60.1122 4.06108 60.1731 4.42921 60.1697 4.79956V4.79956ZM58.8437 4.79956C58.8702 4.35084 58.7448 3.90627 58.4877 3.53757C58.3745 3.39209 58.2286 3.27539 58.0617 3.19702C57.8949 3.11865 57.7119 3.0808 57.5277 3.08656C57.2843 3.08159 57.0452 3.15139 56.8427 3.28656C56.635 3.43441 56.4763 3.6409 56.3867 3.87956C56.1777 4.46959 56.1777 5.11353 56.3867 5.70357C56.476 5.94235 56.634 6.14937 56.8407 6.29857C57.0979 6.46825 57.4088 6.5367 57.7135 6.49072C58.0182 6.44474 58.295 6.28758 58.4907 6.04956C58.7454 5.68437 58.8698 5.24405 58.8437 4.79956V4.79956Z" fill="white"/>
<path d="M62.1676 2.84272V2.99971C62.3679 2.71964 62.6286 2.48826 62.9306 2.32271C63.2258 2.17492 63.5524 2.1008 63.8826 2.10671C64.2101 2.10082 64.5335 2.17971 64.8216 2.33571C65.0878 2.48185 65.3023 2.70681 65.4356 2.97971C65.5232 3.14259 65.5814 3.31962 65.6076 3.5027C65.6348 3.74204 65.6471 3.98285 65.6446 4.22371V6.68671C65.6592 6.90239 65.5941 7.11594 65.4616 7.28672C65.4024 7.35239 65.3296 7.40431 65.2482 7.43886C65.1668 7.47341 65.0789 7.48975 64.9906 7.48671C64.8996 7.48971 64.809 7.47261 64.7254 7.43666C64.6417 7.40072 64.567 7.34679 64.5066 7.27871C64.3746 7.10766 64.3099 6.89423 64.3246 6.67871V4.46972C64.3431 4.12672 64.2808 3.78417 64.1426 3.46971C64.0679 3.34764 63.9596 3.24974 63.8306 3.18782C63.7016 3.1259 63.5575 3.1026 63.4156 3.12072C63.1843 3.11861 62.9588 3.19237 62.7736 3.33071C62.5755 3.47674 62.4263 3.67929 62.3456 3.91172C62.2625 4.27385 62.2289 4.64555 62.2456 5.01671V6.67771C62.2596 6.89395 62.193 7.10773 62.0586 7.27771C61.9973 7.34394 61.9223 7.39611 61.839 7.43064C61.7556 7.46516 61.6657 7.48122 61.5756 7.47771C61.4864 7.48032 61.3977 7.463 61.3161 7.42702C61.2344 7.39104 61.1618 7.33729 61.1036 7.2697C60.9704 7.09924 60.9052 6.88547 60.9206 6.66971V2.84072C60.9046 2.6387 60.9629 2.43779 61.0846 2.27571C61.1408 2.21283 61.2104 2.16337 61.2883 2.131C61.3662 2.09863 61.4503 2.08417 61.5346 2.0887C61.647 2.08657 61.7578 2.11659 61.8538 2.17522C61.9498 2.23385 62.0271 2.31868 62.0766 2.41971C62.1413 2.55105 62.1726 2.69637 62.1676 2.84272V2.84272Z" fill="white"/>
<path d="M36.5342 14.5641C36.5503 14.8996 36.4556 15.2311 36.2648 15.5076C36.074 15.784 35.7976 15.9901 35.4782 16.0941C35.0716 16.2374 34.6422 16.3052 34.2112 16.2941C33.7937 16.3047 33.3784 16.2309 32.9902 16.0771C32.6957 15.9627 32.4359 15.7739 32.2362 15.5291C32.0868 15.3419 32.0019 15.1115 31.9942 14.8721C31.9932 14.8025 32.0064 14.7334 32.0331 14.6691C32.0597 14.6048 32.0992 14.5466 32.1492 14.4981C32.2004 14.4463 32.2617 14.4056 32.3293 14.3784C32.3969 14.3512 32.4694 14.3382 32.5422 14.3401C32.6566 14.3332 32.7695 14.3688 32.8592 14.4401C32.9454 14.5246 33.0182 14.6217 33.0752 14.7281C33.1912 14.9427 33.3593 15.1246 33.5642 15.2571C33.8006 15.385 34.0677 15.4455 34.3362 15.4321C34.5664 15.4413 34.7939 15.3799 34.9882 15.2561C35.0613 15.2152 35.123 15.1566 35.1675 15.0857C35.2121 15.0147 35.2381 14.9337 35.2432 14.8501C35.2494 14.7493 35.2283 14.6486 35.182 14.5588C35.1357 14.4691 35.066 14.3935 34.9802 14.3401C34.704 14.2005 34.4099 14.0996 34.1062 14.0401C33.7268 13.9524 33.3555 13.833 32.9962 13.6831C32.7313 13.5761 32.4955 13.4078 32.3082 13.1921C32.1337 12.9812 32.0422 12.7137 32.0512 12.4401C32.0513 12.1709 32.1344 11.9083 32.2892 11.6881C32.4636 11.4363 32.7065 11.2399 32.9892 11.1221C33.3419 10.9729 33.7224 10.901 34.1052 10.9111C34.4176 10.9068 34.7292 10.9431 35.0322 11.0191C35.2736 11.0761 35.5038 11.1731 35.7132 11.3061C35.8793 11.4061 36.0221 11.5405 36.1322 11.7001C36.22 11.826 36.2693 11.9747 36.2742 12.1281C36.2767 12.1973 36.2645 12.2663 36.2383 12.3305C36.2121 12.3946 36.1725 12.4524 36.1222 12.5001C36.0635 12.5522 35.9949 12.5921 35.9205 12.6173C35.8462 12.6426 35.7675 12.6527 35.6892 12.6471C35.5633 12.6503 35.4404 12.6089 35.3422 12.5301C35.2198 12.4264 35.1097 12.309 35.0142 12.1801C34.9173 12.0544 34.7962 11.9494 34.6582 11.8711C34.4872 11.7846 34.2966 11.7443 34.1052 11.7541C33.8947 11.7456 33.6863 11.7984 33.5052 11.9061C33.4359 11.9433 33.3775 11.9979 33.3358 12.0645C33.294 12.1311 33.2704 12.2075 33.2672 12.2861C33.2661 12.3533 33.2815 12.4198 33.312 12.4798C33.3425 12.5397 33.3872 12.5913 33.4422 12.6301C33.5842 12.7322 33.7439 12.8072 33.9132 12.8511C34.1132 12.9081 34.3802 12.9791 34.7282 13.0631C35.0768 13.1427 35.4145 13.2639 35.7342 13.4241C35.9656 13.5412 36.1677 13.709 36.3252 13.9151C36.4618 14.1038 36.535 14.3311 36.5342 14.5641V14.5641Z" fill="white"/>
<path d="M42.3592 13.6084C42.3628 13.9797 42.3009 14.3487 42.1762 14.6984C42.0601 15.0197 41.8775 15.3128 41.6402 15.5584C41.4051 15.799 41.121 15.9863 40.8072 16.1074C40.4584 16.2406 40.0875 16.3061 39.7142 16.3004C39.3443 16.3058 38.9769 16.2396 38.6322 16.1054C38.3181 15.9804 38.0342 15.7901 37.7991 15.5472C37.564 15.3043 37.383 15.0144 37.2682 14.6965C37.1432 14.3475 37.0816 13.979 37.0862 13.6084C37.0828 13.2338 37.1451 12.8616 37.2702 12.5084C37.3862 12.1906 37.5666 11.9002 37.8002 11.6554C38.0354 11.4161 38.319 11.23 38.6322 11.1094C39.3347 10.8541 40.1047 10.8541 40.8072 11.1094C41.1227 11.231 41.4082 11.4193 41.6442 11.6614C41.8811 11.9061 42.0629 12.1986 42.1772 12.5194C42.3034 12.8684 42.365 13.2374 42.3592 13.6084ZM41.0312 13.6084C41.0583 13.1598 40.9324 12.7153 40.6742 12.3474C40.5615 12.2014 40.4156 12.0843 40.2487 12.0059C40.0817 11.9275 39.8985 11.89 39.7142 11.8964C39.4714 11.8915 39.2329 11.9613 39.0312 12.0964C38.8232 12.2444 38.6643 12.4513 38.5752 12.6904C38.3649 13.2796 38.3649 13.9233 38.5752 14.5124C38.6636 14.7531 38.8216 14.962 39.0292 15.1125C39.2314 15.2521 39.4724 15.3249 39.7182 15.3204C39.9029 15.3266 40.0864 15.2886 40.2534 15.2094C40.4204 15.1303 40.566 15.0123 40.6782 14.8654C40.9358 14.4988 41.062 14.0558 41.0362 13.6084H41.0312Z" fill="white"/>
<path d="M43.1586 15.4949V9.75393C43.143 9.53724 43.2058 9.32219 43.3355 9.14794C43.3949 9.08127 43.4685 9.02872 43.5508 8.99412C43.6331 8.95952 43.7221 8.94373 43.8112 8.94793C43.902 8.94417 43.9925 8.9601 44.0765 8.99462C44.1605 9.02914 44.2361 9.08145 44.298 9.14794C44.4331 9.32049 44.4987 9.53739 44.4819 9.75593V15.4969C44.497 15.7135 44.4299 15.9277 44.294 16.0969C44.2326 16.163 44.1577 16.215 44.0744 16.2495C43.9911 16.284 43.9013 16.3002 43.8112 16.2969C43.7222 16.2993 43.6337 16.2817 43.5523 16.2456C43.4709 16.2094 43.3985 16.1556 43.3405 16.0879C43.2102 15.9188 43.1455 15.7081 43.1586 15.4949Z" fill="white"/>
<path d="M49.0437 15.5537V15.3807C48.8977 15.5689 48.7298 15.7391 48.5437 15.8877C48.3711 16.0195 48.1774 16.121 47.9707 16.1877C47.7409 16.2573 47.5018 16.291 47.2617 16.2877C46.962 16.2924 46.6658 16.2238 46.3987 16.0877C46.1551 15.9634 45.9514 15.7732 45.8107 15.5387C45.6249 15.1633 45.5401 14.7459 45.5647 14.3277V11.7017C45.5467 11.4892 45.6112 11.278 45.7447 11.1117C45.8041 11.0452 45.8775 10.9927 45.9597 10.9581C46.0418 10.9235 46.1307 10.9077 46.2197 10.9117C46.3102 10.9082 46.4004 10.9242 46.4841 10.9587C46.5678 10.9933 46.643 11.0454 46.7047 11.1117C46.8386 11.2779 46.9041 11.4889 46.8877 11.7017V13.8207C46.8833 14.0808 46.9091 14.3406 46.9647 14.5947C47.0043 14.7834 47.1019 14.9551 47.2437 15.0857C47.398 15.2101 47.5929 15.2728 47.7907 15.2617C48.0153 15.2612 48.2343 15.1914 48.4177 15.0617C48.6114 14.9376 48.7625 14.7572 48.8507 14.5447C48.9491 14.1412 48.9869 13.7253 48.9627 13.3107V11.7007C48.9459 11.4875 49.0122 11.2761 49.1477 11.1107C49.2082 11.0445 49.2824 10.9923 49.3651 10.9577C49.4478 10.9232 49.5371 10.9071 49.6267 10.9107C49.7159 10.9069 49.8048 10.9228 49.8871 10.9574C49.9694 10.992 50.0431 11.0443 50.1027 11.1107C50.2353 11.2775 50.2996 11.4884 50.2827 11.7007V15.5377C50.2974 15.7416 50.2349 15.9436 50.1077 16.1037C50.0525 16.1666 49.9841 16.2164 49.9073 16.2496C49.8305 16.2828 49.7473 16.2986 49.6637 16.2957C49.5789 16.2968 49.4948 16.2794 49.4173 16.2449C49.3398 16.2104 49.2707 16.1595 49.2147 16.0957C49.0925 15.9425 49.0316 15.7493 49.0437 15.5537Z" fill="white"/>
<path d="M52.5788 9.70217V11.7252C52.7984 11.4882 53.0542 11.2877 53.3368 11.1312C53.6353 10.9845 53.9654 10.9138 54.2978 10.9252C54.7063 10.9167 55.1085 11.0257 55.4568 11.2392C55.7975 11.4582 56.0657 11.7731 56.2278 12.1442C56.4192 12.5888 56.513 13.0692 56.5028 13.5532C56.5063 13.9271 56.4544 14.2994 56.3488 14.6582C56.2579 14.9731 56.1075 15.2678 55.9058 15.5262C55.7175 15.7689 55.4755 15.9646 55.1988 16.0982C54.9129 16.2334 54.6001 16.3018 54.2838 16.2982C54.0899 16.2991 53.8966 16.2749 53.7088 16.2262C53.5477 16.1851 53.3936 16.12 53.2518 16.0332C53.1362 15.9617 53.0277 15.8793 52.9278 15.7872C52.8048 15.6675 52.6886 15.5409 52.5798 15.4082V15.5392C52.5939 15.7439 52.5287 15.9461 52.3978 16.1042C52.34 16.1668 52.2696 16.2164 52.1911 16.2497C52.1127 16.283 52.028 16.2992 51.9428 16.2972C51.8583 16.3009 51.774 16.2855 51.6962 16.252C51.6185 16.2186 51.5493 16.1681 51.4938 16.1042C51.371 15.9426 51.3116 15.7416 51.3268 15.5392V9.76216C51.3109 9.54627 51.3683 9.33133 51.4898 9.15216C51.5441 9.0853 51.6134 9.03229 51.6922 8.99751C51.771 8.96274 51.8569 8.9472 51.9428 8.95217C52.031 8.94702 52.1191 8.9619 52.2007 8.99567C52.2822 9.02944 52.3551 9.08124 52.4138 9.14717C52.5324 9.30701 52.5908 9.50352 52.5788 9.70217V9.70217ZM52.6398 13.6362C52.6108 14.0716 52.7389 14.5031 53.0008 14.8522C53.1159 14.9905 53.261 15.1008 53.4251 15.1746C53.5892 15.2484 53.768 15.2839 53.9478 15.2782C54.1153 15.277 54.2802 15.2371 54.4298 15.1616C54.5793 15.0862 54.7094 14.9772 54.8098 14.8432C55.073 14.4832 55.2011 14.0421 55.1718 13.5972C55.1779 13.2902 55.126 12.9849 55.0188 12.6972C54.934 12.4664 54.7864 12.2638 54.5928 12.1122C54.4064 11.9735 54.1791 11.901 53.9468 11.9062C53.7061 11.9025 53.4704 11.9746 53.2728 12.1122C53.0668 12.264 52.9063 12.4695 52.8088 12.7062C52.6896 13.0014 52.632 13.3179 52.6398 13.6362V13.6362Z" fill="white"/>
<path d="M57.1821 15.495V9.75397C57.1663 9.5371 57.2295 9.32185 57.36 9.14799C57.4195 9.08119 57.4932 9.02854 57.5757 8.99393C57.6582 8.95933 57.7474 8.94363 57.8367 8.94797C57.9274 8.94474 58.0177 8.96091 58.1017 8.9954C58.1856 9.02989 58.2612 9.08192 58.3235 9.14799C58.4571 9.32123 58.5219 9.53779 58.5054 9.75597V15.497C58.5211 15.7136 58.4539 15.9281 58.3175 16.097C58.2564 16.1629 58.1818 16.2149 58.0989 16.2494C58.0159 16.2839 57.9265 16.3001 57.8367 16.297C57.7475 16.2995 57.6589 16.282 57.5772 16.2458C57.4956 16.2097 57.4231 16.1557 57.365 16.088C57.2345 15.9188 57.1696 15.7083 57.1821 15.495Z" fill="white"/>
<path d="M63.3229 13.9311H60.7329C60.7299 14.2085 60.7926 14.4826 60.9159 14.7311C61.0172 14.9409 61.1761 15.1175 61.3741 15.2402C61.5721 15.363 61.801 15.4267 62.0339 15.4241C62.18 15.4262 62.3255 15.407 62.4659 15.3671C62.6013 15.3296 62.7301 15.2716 62.8479 15.1951C62.9676 15.1177 63.0812 15.0315 63.1879 14.9371C63.2879 14.8491 63.4259 14.7231 63.5879 14.5701C63.6709 14.5071 63.7741 14.4769 63.8779 14.4851C63.9985 14.479 64.1169 14.5183 64.2099 14.5951C64.2524 14.6354 64.2855 14.6844 64.3069 14.7388C64.3283 14.7933 64.3376 14.8517 64.3339 14.9101C64.3254 15.0599 64.2774 15.2048 64.1949 15.3301C64.0829 15.5096 63.938 15.6663 63.7679 15.7921C63.5529 15.9516 63.313 16.0746 63.0579 16.1561C62.7386 16.2592 62.4044 16.3089 62.0689 16.3031C61.7058 16.325 61.342 16.2714 61.0005 16.1458C60.6591 16.0202 60.3473 15.8252 60.0849 15.5731C59.842 15.3077 59.6544 14.9965 59.5332 14.6577C59.412 14.3189 59.3595 13.9594 59.3789 13.6001C59.3754 13.2294 59.4349 12.8608 59.5549 12.5101C59.6609 12.1912 59.8333 11.8984 60.0609 11.6511C60.2913 11.4085 60.5728 11.2203 60.8849 11.1001C61.2334 10.9686 61.6035 10.9038 61.9759 10.9091C62.4402 10.8968 62.8991 11.0105 63.3039 11.2381C63.6552 11.4355 63.9435 11.7281 64.1359 12.0821C64.3145 12.4064 64.4097 12.7699 64.4129 13.1401C64.4313 13.2643 64.414 13.3912 64.3632 13.5061C64.3125 13.6209 64.2302 13.7191 64.1259 13.7891C63.8725 13.8968 63.5979 13.9454 63.3229 13.9311V13.9311ZM60.7329 13.1801H63.1329C63.1322 12.8102 63.0028 12.4521 62.7669 12.1671C62.6601 12.054 62.5301 11.9652 62.3858 11.9069C62.2416 11.8485 62.0864 11.822 61.9309 11.8291C61.7786 11.8243 61.627 11.8523 61.4864 11.9111C61.3458 11.9699 61.2195 12.0583 61.116 12.1701C60.8819 12.4562 60.7474 12.8107 60.7329 13.1801Z" fill="white"/>
<path d="M24.3758 2.73817C23.5575 1.92341 22.5854 1.27928 21.5161 0.843157C20.4468 0.407034 19.3016 0.187602 18.1468 0.197592C16.9654 0.193597 15.7947 0.422403 14.7017 0.87094C13.6087 1.31948 12.6147 1.97896 11.7766 2.81171L7.10577 7.31416L5.24391 9.11647L4.60049 9.73782C4.49484 9.84657 4.36823 9.93275 4.22831 9.99114C4.08839 10.0495 3.93808 10.0789 3.78647 10.0775H3.77986C3.49692 10.0795 3.22467 9.96956 3.02246 9.77165C2.82053 9.56522 2.708 9.28758 2.70921 8.99881C2.70948 8.8583 2.73755 8.71923 2.79182 8.58961C2.84609 8.46 2.92548 8.34241 3.0254 8.24362C3.19985 8.10682 3.40744 8.01869 3.62702 7.98821C3.84661 7.95772 4.07035 7.98597 4.27547 8.07008V8.07008C4.51182 8.19783 4.78187 8.24944 5.04868 8.21785C5.31548 8.18626 5.56601 8.07301 5.76599 7.8936C5.94386 7.71149 6.052 7.47263 6.0715 7.21882C6.09099 6.96501 6.02059 6.71243 5.87262 6.50529L5.8432 6.47441C5.25524 6.02514 4.5345 5.78429 3.79456 5.78981C2.93279 5.77288 2.09913 6.09657 1.47458 6.6906C1.01164 7.14283 0.694951 7.7235 0.565444 8.35759C0.435938 8.99167 0.499564 9.65002 0.7481 10.2476C0.996636 10.8451 1.41866 11.3544 1.95964 11.7096C2.50062 12.0648 3.13569 12.2496 3.7828 12.2402C4.65999 12.2451 5.5044 11.9071 6.13587 11.2982L13.3032 4.37723C14.5902 3.09686 16.3328 2.37962 18.1483 2.38301C19.0149 2.37514 19.8745 2.53864 20.6778 2.86409C21.481 3.18955 22.212 3.67054 22.8287 4.27943C24.0739 5.53492 24.7732 7.23125 24.7744 8.99955C24.7785 9.87259 24.6089 10.7377 24.2753 11.5446C23.9418 12.3514 23.451 13.0838 22.8316 13.6991C21.5588 14.9075 19.8707 15.5812 18.1156 15.5812C16.3605 15.5812 14.6723 14.9075 13.3995 13.6991L9.58385 9.88416C9.47808 9.81464 9.35964 9.76666 9.2353 9.74297H9.2206C9.03715 9.70824 8.84813 9.71674 8.66854 9.7678C8.48895 9.81886 8.32372 9.91106 8.18598 10.0371C8.0163 10.2226 7.91047 10.4575 7.88401 10.7074C7.85754 10.9574 7.91183 11.2093 8.03891 11.4262L8.03303 11.4342L11.8744 15.2653C13.5572 16.8771 15.7983 17.7752 18.1285 17.7718C20.4586 17.7684 22.697 16.8636 24.3751 15.247C25.2 14.4302 25.854 13.4573 26.2987 12.385C26.7435 11.3127 26.9703 10.1626 26.9657 9.00175C26.9642 6.65366 26.0331 4.40167 24.3758 2.73817V2.73817ZM9.48311 9.98416L9.49782 9.96945L9.48311 9.98416Z" fill="url(#paint0_linear_79830_2)"/>
<defs>
<linearGradient id="paint0_linear_79830_2" x1="7.01058" y1="16.8755" x2="15.3876" y2="-2.12128" gradientUnits="userSpaceOnUse">
<stop stop-color="#EC6C83"/>
<stop offset="0.144" stop-color="#EC707D"/>
<stop offset="0.332" stop-color="#EE7D6D"/>
<stop offset="0.545" stop-color="#F09252"/>
<stop offset="0.774" stop-color="#F3AF2C"/>
<stop offset="1" stop-color="#F7D100"/>
</linearGradient>
</defs>
</svg>
